<svg width="184" height="56" viewBox="0 0 184 56" fill="none" xmlns="http://www.w3.org/2000/svg">
<path d="M86.1786 26.3495C84.9276 26.7303 83.5677 26.9479 82.2079 26.9479C80.4674 26.9479 78.89 26.6759 77.5302 26.132C76.1704 25.588 74.9738 24.8266 73.9947 23.8475C73.0157 22.8684 72.3086 21.7262 71.7647 20.3664C71.2751 19.0066 71.0032 17.4836 71.0032 15.8519C71.0032 14.2745 71.2751 12.8059 71.819 11.4461C72.363 10.0863 73.1245 8.88966 74.1035 7.9106C75.0826 6.93154 76.2792 6.11566 77.639 5.57174C78.9988 5.02782 80.5762 4.75586 82.2623 4.75586C83.4046 4.75586 84.6012 4.86464 85.7434 5.1366C85.8522 5.191 86.0698 5.24539 86.233 5.29978C86.4505 5.35417 86.6681 5.40856 86.8857 5.46296C87.1032 5.51735 87.3208 5.57174 87.5384 5.62613C87.7559 5.68052 87.9191 5.68053 88.0279 5.68053C88.463 5.68053 88.735 5.51735 88.8438 5.1366H89.2245C89.2245 5.46296 89.2245 5.8437 89.2245 6.33323C89.2245 6.76837 89.2245 7.20351 89.2245 7.63864C89.2245 8.07378 89.1701 8.50892 89.1701 8.94405C89.1157 9.37919 89.0614 9.75994 89.007 10.0319C88.2455 8.83527 87.3752 7.9106 86.4505 7.31229C85.5259 6.71398 84.2748 6.38762 82.7519 6.38762C81.2833 6.38762 79.9779 6.65958 78.9444 7.14911C77.8566 7.63864 76.9863 8.34574 76.2792 9.21602C75.5721 10.0863 75.0826 11.0653 74.7018 12.262C74.3755 13.4042 74.2123 14.6552 74.2123 15.9062C74.2123 17.2117 74.3755 18.4627 74.7562 19.6593C75.0826 20.8015 75.6265 21.835 76.3336 22.6509C77.0407 23.5211 77.9654 24.1739 79.0532 24.6634C80.141 25.1529 81.4465 25.4249 82.915 25.4249C83.459 25.4249 84.0029 25.4249 84.6556 25.3705C85.2539 25.3705 85.9066 25.3161 86.5049 25.2073C87.1032 25.0985 87.7015 24.9897 88.2455 24.7722C88.7894 24.5546 89.2789 24.2826 89.7141 23.9563L89.8228 24.5002C88.6262 25.3161 87.4296 25.9688 86.1786 26.3495Z" fill="white"/>
<path d="M117.128 26.5667H102.061V26.2404C102.768 26.2404 103.149 26.1316 103.367 25.9684C103.53 25.8052 103.639 25.3701 103.639 24.7174V7.03995C103.639 6.38724 103.53 5.9521 103.367 5.73453C103.203 5.57136 102.768 5.46257 102.061 5.46257V5.19061H116.801L116.856 8.45414H116.421C116.312 7.63826 116.04 7.14873 115.659 6.98555C115.278 6.82238 114.68 6.71359 113.919 6.71359H107.228C106.848 6.71359 106.63 6.76798 106.576 6.82238C106.521 6.87677 106.467 7.09434 106.467 7.42069V14.6548H113.157C113.483 14.6548 113.81 14.6548 114.082 14.6005C114.354 14.5461 114.571 14.4917 114.735 14.3829C114.898 14.2741 115.006 14.1109 115.115 13.8934C115.224 13.6758 115.278 13.4038 115.333 13.0231H115.768V17.8096H115.333C115.278 17.4288 115.224 17.1569 115.115 16.9393C115.006 16.7217 114.898 16.5586 114.735 16.4498C114.571 16.341 114.354 16.2866 114.082 16.2322C113.81 16.1778 113.538 16.1778 113.157 16.1778H106.467V24.4454C106.467 24.6086 106.521 24.7718 106.63 24.8806C106.739 24.9893 106.902 25.0437 107.065 25.0437C107.228 25.0437 107.392 25.0437 107.609 25.0437C107.772 25.0437 107.935 25.0437 108.099 25.0437H113.538C114.082 25.0437 114.517 24.9893 114.898 24.9893C115.278 24.935 115.605 24.8262 115.931 24.663C116.257 24.4998 116.529 24.2822 116.747 24.0103C116.965 23.7383 117.237 23.3576 117.454 22.8681H117.998L117.128 26.5667Z" fill="white"/>
<path d="M150.307 26.5667V26.2404C150.634 26.2404 150.96 26.2404 151.178 26.186C151.395 26.1316 151.558 26.0772 151.667 25.9684C151.776 25.8596 151.885 25.6964 151.939 25.5333C151.994 25.3157 151.994 25.0437 151.994 24.7174V7.63826L143.563 26.5667H142.421L133.99 8.07339V23.9015C133.99 24.2822 133.99 24.663 133.99 24.935C133.99 25.2069 134.044 25.4789 134.153 25.6964C134.262 25.914 134.425 26.0228 134.642 26.1316C134.86 26.2404 135.241 26.2948 135.676 26.2948V26.6211H130.346V26.2948C130.781 26.2948 131.161 26.2404 131.433 26.1316C131.705 26.0228 131.868 25.914 131.977 25.6964C132.086 25.5333 132.14 25.2613 132.14 24.9893C132.14 24.7174 132.14 24.3366 132.14 23.9015V7.03995C132.14 6.6592 132.14 6.38724 132.032 6.16967C131.977 5.9521 131.868 5.78893 131.76 5.73453C131.651 5.62575 131.433 5.57136 131.216 5.57136C130.998 5.57136 130.672 5.51696 130.346 5.51696V5.19061H135.513L143.508 22.7049L151.341 5.19061H156.399V5.51696C156.073 5.51696 155.747 5.51697 155.583 5.57136C155.366 5.62575 155.203 5.68014 155.094 5.78893C154.985 5.89771 154.931 6.06089 154.876 6.27846C154.822 6.49602 154.822 6.76798 154.822 7.09434V24.7718C154.822 25.1525 154.822 25.4245 154.876 25.5877C154.931 25.8052 154.985 25.9684 155.094 26.0228C155.203 26.1316 155.366 26.186 155.583 26.2404C155.801 26.2948 156.073 26.2948 156.399 26.2948V26.6211H150.307V26.5667Z" fill="white"/>
<path d="M170.922 26.1323C170.813 26.2411 170.759 26.3499 170.759 26.5131H170.378L170.215 21.8897L170.269 21.7809H170.541C170.922 22.7056 171.466 23.4127 172.118 23.9566C172.771 24.5006 173.478 24.8813 174.24 25.1533C175.001 25.3708 175.763 25.4796 176.524 25.4796C177.286 25.4252 177.993 25.262 178.645 24.9357C179.298 24.6093 179.788 24.1742 180.168 23.6303C180.549 23.0864 180.767 22.4336 180.767 21.6722C180.767 20.7475 180.495 19.986 180.005 19.3877C179.516 18.7894 178.863 18.2455 178.047 17.7559C177.286 17.2664 176.415 16.7769 175.545 16.3417C174.62 15.9066 173.804 15.3627 173.043 14.8188C172.281 14.2748 171.629 13.6221 171.139 12.8606C170.595 12.0991 170.378 11.1745 170.378 10.0866C170.378 9.27075 170.541 8.50926 170.922 7.91095C171.302 7.25824 171.738 6.71432 172.336 6.27919C172.934 5.78966 173.587 5.4633 174.348 5.24573C175.11 5.02817 175.871 4.86499 176.687 4.86499C177.177 4.86499 177.612 4.91938 178.047 4.97377C178.482 5.02817 178.972 5.13695 179.407 5.30013C179.461 5.30013 179.57 5.35452 179.788 5.40891C180.005 5.4633 180.223 5.5177 180.44 5.57209C180.658 5.62648 180.875 5.68087 181.093 5.73526C181.311 5.78966 181.419 5.78966 181.419 5.78966C181.8 5.73526 182.018 5.57209 182.072 5.19134H182.453C182.562 5.95283 182.616 6.76872 182.725 7.5846C182.779 8.40048 182.834 9.21636 182.779 9.97785H182.398C182.126 9.16197 181.691 8.50926 181.093 7.96534C180.495 7.42142 179.896 7.04068 179.189 6.76872C178.482 6.49676 177.775 6.33358 177.014 6.33358C176.307 6.33358 175.599 6.44236 175.001 6.71432C174.403 6.98628 173.913 7.36703 173.533 7.85656C173.152 8.34609 172.934 8.99879 172.934 9.70589C172.934 10.2498 173.097 10.7937 173.424 11.2289C173.75 11.664 174.131 12.0448 174.566 12.4255C175.164 12.8606 175.763 13.2958 176.361 13.6765C177.014 14.0573 177.666 14.438 178.319 14.7644L178.101 14.6556C178.809 15.0363 179.516 15.4171 180.223 15.7978C180.875 16.2329 181.474 16.6681 182.018 17.212C182.562 17.7559 182.942 18.3542 183.269 19.0069C183.595 19.6597 183.704 20.4211 183.704 21.2914C183.704 22.2161 183.486 22.9776 183.051 23.6847C182.616 24.3918 182.072 24.9901 181.419 25.4796C180.767 25.9691 180.005 26.3499 179.135 26.5675C178.319 26.8394 177.449 26.9482 176.578 26.9482C175.654 26.9482 174.784 26.8394 173.913 26.6218C173.097 26.4043 172.227 26.1867 171.357 25.9691C171.139 25.9691 171.03 26.0235 170.922 26.1323Z" fill="white"/>
<path d="M23.7305 6.94965L23.3771 7.30303C21.787 6.18402 20.0201 5.77175 18.0177 5.94843C16.0152 6.12512 14.0717 6.77297 12.2459 7.83309C10.4202 8.8932 8.88887 10.0711 7.65207 11.3668C5.9441 13.1337 4.7073 15.1361 3.88277 17.3741C3.05823 19.6122 2.70486 21.9091 2.82265 24.2649C2.94044 26.6207 3.52939 28.9765 4.64841 31.3323C5.70852 33.6882 7.2398 35.8673 9.18335 37.8697C11.068 39.8133 13.1293 41.3446 15.3085 42.4047C17.4876 43.4648 19.7845 44.0537 22.0814 44.1126C24.3784 44.1715 26.5575 43.7593 28.6188 42.8758C30.6802 41.9924 32.6237 40.5789 34.3906 38.6943C35.863 37.1041 37.2176 35.1605 38.4544 32.6869C39.6912 30.2722 40.339 27.6219 40.4568 24.7361L41.5169 25.7962C40.9869 28.9765 40.339 31.6268 39.4556 33.7471C38.5721 35.8673 37.0409 38.1053 34.8617 40.4022C32.5648 42.8169 30.0912 44.6427 27.382 45.8206C24.6728 46.9985 22.0225 47.6464 19.4311 47.6464C16.7809 47.6464 14.3072 47.1752 12.0103 46.174C9.65451 45.1728 7.65207 43.7593 5.88521 41.9924C3.23492 39.3421 1.46805 36.1029 0.584623 32.2747C-0.298807 28.4465 -0.181017 24.6183 0.937996 20.7312C1.99811 16.8441 3.94166 13.4281 6.76864 10.4834C8.47661 8.65762 10.5968 6.94965 13.0116 5.41837L15.6029 3.7693C16.0741 3.41593 16.4275 3.12146 16.722 2.82698C17.252 2.29692 17.4876 1.82576 17.5465 1.53128C17.6054 1.17791 17.4287 0.824536 17.1931 0.353373L17.4876 0L23.7305 6.94965Z" fill="white"/>
<path d="M36.8643 47.9994L37.2177 47.646C38.749 48.8239 40.5158 49.4129 42.5183 49.2951C44.5207 49.2362 46.5232 48.7061 48.4078 47.7638C50.2925 46.8215 51.8826 45.7614 53.2372 44.5246C55.0041 42.8755 56.4176 40.932 57.3599 38.7528C58.3022 36.5737 58.7734 34.2768 58.8323 31.921C58.8323 29.5651 58.3611 27.1504 57.4777 24.7357C56.5354 22.321 55.1808 20.0241 53.2961 17.9039C51.5293 15.8425 49.5857 14.1934 47.4066 13.0155C45.2864 11.8376 43.0483 11.1309 40.7514 10.8953C38.4545 10.7186 36.2754 10.9542 34.1551 11.7787C32.0349 12.5444 30.0325 13.8401 28.1478 15.6069C26.5576 17.0793 25.0852 19.0229 23.7306 21.3787C22.3761 23.7345 21.5515 26.3259 21.257 29.1529L20.2558 28.0339C20.9626 24.9124 21.7871 22.321 22.7883 20.2008C23.7895 18.1394 25.4386 15.9603 27.7944 13.8401C30.2091 11.5432 32.8594 9.89408 35.5686 8.83397C38.3367 7.77385 40.987 7.36158 43.6373 7.47937C46.2876 7.59716 48.7023 8.24501 50.9992 9.36403C53.2961 10.483 55.2397 12.0143 56.8887 13.899C59.3624 16.7848 60.8936 20.1419 61.5415 23.9701C62.1893 27.7983 61.836 31.6265 60.5403 35.4547C59.2446 39.2829 57.0654 42.581 54.1207 45.3491C52.2949 47.0571 50.1158 48.6472 47.5833 50.0607L44.8741 51.5331C44.4029 51.8276 43.9907 52.1221 43.6962 52.4166C43.1661 52.9466 42.8716 53.3589 42.8128 53.6534C42.7539 54.0067 42.8716 54.3601 43.1072 54.8902L42.6361 55.3024L36.8643 47.9994Z" fill="white"/>
<path d="M76.8611 46.6316H73.097V49.0672H77.543V50.9623H70.7035V40.7426H77.5567V42.6447H73.097V44.7996H76.8611V46.6316Z" fill="white"/>
<path d="M86.8102 50.9623H84.4303L80.9117 44.603V50.9623H78.5182V40.7426H80.9117L84.4235 47.1018V40.7426H86.8102V50.9623Z" fill="white"/>
<path d="M95.9136 42.6447H92.9337V50.9623H90.5402V42.6447H87.6148V40.7426H95.9136V42.6447Z" fill="white"/>
<path d="M100.619 47.3545H99.3232V50.9623H96.9297V40.7426H100.837C102.014 40.7426 102.935 41.0116 103.599 41.5497C104.262 42.0879 104.594 42.8483 104.594 43.8309C104.594 44.5422 104.453 45.1318 104.172 45.5997C103.894 46.0677 103.458 46.4467 102.862 46.7368L104.935 50.857V50.9623H102.371L100.619 47.3545ZM99.3232 45.4523H100.837C101.292 45.4523 101.633 45.3307 101.86 45.0874C102.092 44.8393 102.208 44.4954 102.208 44.0556C102.208 43.6157 102.092 43.2718 101.86 43.0238C101.628 42.7711 101.287 42.6447 100.837 42.6447H99.3232V45.4523Z" fill="white"/>
<path d="M112.198 46.6316H108.433V49.0672H112.879V50.9623H106.04V40.7426H112.893V42.6447H108.433V44.7996H112.198V46.6316Z" fill="white"/>
<path d="M116.248 47.4949V50.9623H113.855V40.7426H117.816C118.576 40.7426 119.246 40.8876 119.828 41.1777C120.415 41.4632 120.867 41.8726 121.185 42.4061C121.508 42.9348 121.669 43.5361 121.669 44.21C121.669 45.2067 121.321 46.0045 120.626 46.6035C119.935 47.1978 118.985 47.4949 117.776 47.4949H116.248ZM116.248 45.5927H117.816C118.28 45.5927 118.632 45.4734 118.873 45.2348C119.119 44.9961 119.242 44.6592 119.242 44.224C119.242 43.7467 119.117 43.3653 118.867 43.0799C118.617 42.7945 118.276 42.6494 117.844 42.6447H116.248V45.5927Z" fill="white"/>
<path d="M126.64 47.3545H125.345V50.9623H122.951V40.7426H126.859C128.036 40.7426 128.957 41.0116 129.62 41.5497C130.284 42.0879 130.616 42.8483 130.616 43.8309C130.616 44.5422 130.475 45.1318 130.193 45.5997C129.916 46.0677 129.479 46.4467 128.884 46.7368L130.957 50.857V50.9623H128.393L126.64 47.3545ZM125.345 45.4523H126.859C127.313 45.4523 127.654 45.3307 127.881 45.0874C128.113 44.8393 128.229 44.4954 128.229 44.0556C128.229 43.6157 128.113 43.2718 127.881 43.0238C127.65 42.7711 127.309 42.6447 126.859 42.6447H125.345V45.4523Z" fill="white"/>
<path d="M138.219 46.6316H134.455V49.0672H138.901V50.9623H132.062V40.7426H138.915V42.6447H134.455V44.7996H138.219V46.6316Z" fill="white"/>
<path d="M148.168 50.9623H145.788L142.27 44.603V50.9623H139.876V40.7426H142.27L145.782 47.1018V40.7426H148.168V50.9623Z" fill="white"/>
<path d="M155.84 46.6316H152.076V49.0672H156.522V50.9623H149.682V40.7426H156.535V42.6447H152.076V44.7996H155.84V46.6316Z" fill="white"/>
<path d="M165.284 40.7426V47.4317C165.284 48.1898 165.127 48.8472 164.814 49.4041C164.5 49.9563 164.05 50.3774 163.463 50.6675C162.877 50.9576 162.184 51.1027 161.384 51.1027C160.174 51.1027 159.222 50.7798 158.526 50.1341C157.831 49.4883 157.476 48.6039 157.463 47.4809V40.7426H159.87V47.53C159.897 48.6484 160.402 49.2075 161.384 49.2075C161.879 49.2075 162.254 49.0672 162.509 48.7864C162.763 48.5056 162.891 48.0494 162.891 47.4177V40.7426H165.284Z" fill="white"/>
<path d="M170.473 47.3545H169.178V50.9623H166.784V40.7426H170.692C171.869 40.7426 172.79 41.0116 173.453 41.5497C174.117 42.0879 174.449 42.8483 174.449 43.8309C174.449 44.5422 174.308 45.1318 174.026 45.5997C173.749 46.0677 173.312 46.4467 172.717 46.7368L174.79 50.857V50.9623H172.226L170.473 47.3545ZM169.178 45.4523H170.692C171.146 45.4523 171.487 45.3307 171.714 45.0874C171.946 44.8393 172.062 44.4954 172.062 44.0556C172.062 43.6157 171.946 43.2718 171.714 43.0238C171.483 42.7711 171.142 42.6447 170.692 42.6447H169.178V45.4523Z" fill="white"/>
<path d="M181.016 48.2459C181.016 47.8856 180.891 47.6049 180.641 47.4036C180.395 47.2024 179.961 46.9942 179.338 46.779C178.715 46.5637 178.206 46.3555 177.811 46.1543C176.524 45.5038 175.881 44.6101 175.881 43.473C175.881 42.9068 176.04 42.4084 176.358 41.9779C176.681 41.5427 177.136 41.2058 177.722 40.9672C178.308 40.7238 178.968 40.6022 179.7 40.6022C180.413 40.6022 181.052 40.7332 181.616 40.9952C182.184 41.2573 182.625 41.6316 182.939 42.1183C183.252 42.6003 183.409 43.1524 183.409 43.7748H181.022C181.022 43.3583 180.897 43.0354 180.647 42.8062C180.402 42.5769 180.068 42.4622 179.645 42.4622C179.218 42.4622 178.879 42.5605 178.629 42.757C178.383 42.9489 178.261 43.1945 178.261 43.494C178.261 43.7561 178.397 43.9947 178.67 44.21C178.943 44.4205 179.422 44.6405 180.109 44.8698C180.795 45.0944 181.359 45.3377 181.8 45.5997C182.873 46.2361 183.409 47.1135 183.409 48.2319C183.409 49.1257 183.082 49.8276 182.427 50.3376C181.773 50.8477 180.875 51.1027 179.734 51.1027C178.929 51.1027 178.199 50.9553 177.545 50.6605C176.895 50.361 176.404 49.9539 176.072 49.4392C175.745 48.9198 175.581 48.3231 175.581 47.6493H177.981C177.981 48.1968 178.118 48.6016 178.39 48.8636C178.668 49.121 179.115 49.2497 179.734 49.2497C180.129 49.2497 180.441 49.1631 180.668 48.99C180.9 48.8121 181.016 48.5641 181.016 48.2459Z" fill="white"/>
</svg>
