<svg width="313" height="280" viewBox="0 0 313 280" fill="none" xmlns="http://www.w3.org/2000/svg">
<path d="M120.076 35.1652L118.288 36.9532C110.242 31.291 101.301 29.205 91.1691 30.099C81.0368 30.993 71.2025 34.2711 61.9642 39.6353C52.7258 44.9995 44.9776 50.9597 38.7194 57.5159C30.0771 66.4562 23.8189 76.5885 19.6467 87.9129C15.4746 99.2373 13.6865 110.86 14.2826 122.78C14.8786 134.7 17.8587 146.621 23.5209 158.541C28.8851 170.462 36.6333 181.488 46.4676 191.62C56.004 201.455 66.4343 209.203 77.4607 214.567C88.487 219.931 100.109 222.911 111.732 223.209C123.354 223.507 134.381 221.421 144.811 216.951C155.241 212.481 165.076 205.329 174.016 195.792C181.466 187.746 188.32 177.912 194.579 165.395C200.837 153.177 204.115 139.767 204.711 125.164L210.075 130.528C207.393 146.621 204.115 160.031 199.645 170.76C195.175 181.488 187.426 192.812 176.4 204.435C164.778 216.653 152.261 225.891 138.553 231.852C124.844 237.812 111.434 241.09 98.3214 241.09C84.9109 241.09 72.3945 238.706 60.7721 233.64C48.8517 228.574 38.7194 221.421 29.7791 212.481C16.3686 199.071 7.42834 182.68 2.95819 163.309C-1.51196 143.939 -0.915943 124.568 4.74625 104.899C10.1104 85.2308 19.9448 67.9462 34.2492 53.0458C42.8915 43.8074 53.6199 35.1652 65.8383 27.4169L78.9507 19.0726C81.3348 17.2846 83.1229 15.7945 84.6129 14.3045C87.295 11.6224 88.487 9.23831 88.7851 7.74826C89.0831 5.9602 88.189 4.17214 86.997 1.78806L88.487 0L120.076 35.1652Z" fill="white"/>
<path d="M186.533 242.877L188.321 241.089C196.069 247.049 205.009 250.029 215.142 249.433C225.274 249.135 235.406 246.453 244.943 241.685C254.479 236.916 262.525 231.552 269.379 225.294C278.32 216.95 285.472 207.115 290.24 196.089C295.008 185.063 297.392 173.44 297.69 161.52C297.69 149.599 295.306 137.381 290.836 125.163C286.068 112.944 279.214 101.322 269.677 90.5935C260.737 80.1631 250.903 71.8189 239.876 65.8587C229.148 59.8985 217.824 56.3223 206.201 55.1303C194.579 54.2363 183.553 55.4283 172.824 59.6005C162.096 63.4746 151.964 70.0308 142.427 78.9711C134.381 86.4214 126.931 96.2557 120.077 108.176C113.222 120.096 109.05 133.209 107.56 147.513L102.494 141.851C106.07 126.057 110.242 112.944 115.308 102.216C120.375 91.7855 128.719 80.7592 140.639 70.0308C152.858 58.4084 166.268 50.0641 179.977 44.7C193.983 39.3358 207.393 37.2497 220.804 37.8457C234.214 38.4417 246.433 41.7199 258.055 47.382C269.677 53.0442 279.512 60.7925 287.856 70.3288C300.373 84.9313 308.121 101.918 311.399 121.289C314.677 140.659 312.889 160.03 306.333 179.4C299.776 198.771 288.75 215.46 273.85 229.466C264.611 238.108 253.585 246.155 240.771 253.307L227.062 260.757C224.678 262.247 222.592 263.737 221.102 265.227C218.42 267.909 216.93 269.995 216.632 271.486C216.334 273.274 216.93 275.062 218.122 277.744L215.738 279.83L186.533 242.877Z" fill="white"/>
</svg>
