<svg width="289" height="88" viewBox="0 0 289 88" fill="none" xmlns="http://www.w3.org/2000/svg">
<circle cx="23.1105" cy="54.5548" r="12.4444" fill="url(#paint0_linear)"/>
<circle cx="22.2216" cy="30.5556" r="11.5556" fill="url(#paint1_linear)"/>
<path d="M0.000220203 43C0.000219624 56.2548 10.3474 67 23.1113 67L23.1113 19C10.3474 19 0.000220783 29.7452 0.000220203 43Z" fill="url(#paint2_linear)"/>
<path d="M23.1113 19.0002C10.3474 19.0002 0.000216646 29.3474 0.00021553 42.1113L23.1113 42.1113L23.1113 19.0002Z" fill="url(#paint3_linear)"/>
<path d="M69.696 64V60.416C71.168 62.848 74.432 64.704 78.656 64.704C87.552 64.704 93.824 57.728 93.824 48C93.824 38.464 88.256 31.424 79.04 31.424C74.688 31.424 71.168 33.216 69.824 35.2V17.664H60.288V64H69.696ZM84.096 48.064C84.096 53.376 80.704 56 76.928 56C73.152 56 69.696 53.312 69.696 48.064C69.696 42.688 73.152 40.192 76.928 40.192C80.704 40.192 84.096 42.688 84.096 48.064ZM107.461 44.288C107.653 41.92 109.701 38.912 113.797 38.912C118.405 38.912 120.069 41.856 120.197 44.288H107.461ZM120.901 52.544C120.005 55.04 118.021 56.704 114.501 56.704C110.725 56.704 107.461 54.144 107.269 50.56H129.413C129.477 50.368 129.604 48.896 129.604 47.552C129.604 37.312 123.525 31.232 113.669 31.232C105.413 31.232 97.7965 37.76 97.7965 48C97.7965 58.688 105.605 64.96 114.373 64.96C122.437 64.96 127.493 60.352 129.029 54.848L120.901 52.544ZM133.931 55.232C133.931 60.288 137.963 64.896 144.939 64.896C149.163 64.896 152.235 63.104 153.899 60.416C153.899 62.592 154.155 63.744 154.219 64H162.987C162.923 63.68 162.603 61.568 162.603 59.072V43.52C162.603 36.992 158.827 31.232 148.523 31.232C139.179 31.232 134.955 37.248 134.571 41.792L143.019 43.52C143.211 41.152 145.067 38.848 148.458 38.848C151.531 38.848 153.131 40.448 153.131 42.304C153.131 43.392 152.555 44.224 150.827 44.48L143.339 45.632C138.091 46.4 133.931 49.6 133.931 55.232ZM147.307 57.856C144.619 57.856 143.531 56.256 143.531 54.592C143.531 52.352 145.067 51.392 147.115 51.072L153.131 50.112V51.52C153.131 56.448 150.187 57.856 147.307 57.856ZM180.516 64V45.696C180.516 42.816 182.372 40.192 185.764 40.192C189.284 40.192 190.884 42.56 190.884 45.568V64H200.484V45.632C200.484 42.816 202.34 40.192 205.796 40.192C209.252 40.192 210.852 42.56 210.852 45.568V64H220.26V43.392C220.26 34.752 214.5 31.232 208.484 31.232C204.196 31.232 201.124 32.64 198.628 36.224C197.028 33.088 193.764 31.232 189.22 31.232C185.764 31.232 181.668 33.024 180.068 35.84V32.192H170.788V64H180.516ZM225.852 54.976C226.108 58.496 229.308 64.96 239.292 64.96C247.804 64.96 251.964 59.648 251.964 54.208C251.964 49.536 248.764 45.568 242.172 44.224L237.948 43.392C236.54 43.136 235.452 42.368 235.452 41.024C235.452 39.36 237.052 38.272 238.908 38.272C241.852 38.272 243.196 40.064 243.452 42.176L251.516 40.704C251.196 36.992 247.996 31.232 238.78 31.232C231.676 31.232 226.556 35.968 226.556 41.792C226.556 46.272 229.244 50.112 236.028 51.584L239.676 52.416C242.044 52.928 242.812 53.888 242.812 55.04C242.812 56.448 241.596 57.792 239.1 57.792C235.772 57.792 234.236 55.68 234.108 53.504L225.852 54.976Z" fill="#2A3E49"/>
<defs>
<linearGradient id="paint0_linear" x1="8.40867" y1="54.1467" x2="55.8466" y2="54.1467" gradientUnits="userSpaceOnUse">
<stop stop-color="#6BCCC0"/>
<stop offset="0.576374" stop-color="#11BDA8"/>
<stop offset="1" stop-color="#3ABEDB"/>
</linearGradient>
<linearGradient id="paint1_linear" x1="10.672" y1="19.012" x2="35.6941" y2="17.8933" gradientUnits="userSpaceOnUse">
<stop stop-color="#26A7FB"/>
<stop offset="0.368029" stop-color="#3395F0"/>
<stop offset="0.946214" stop-color="#128DFA"/>
</linearGradient>
<linearGradient id="paint2_linear" x1="23.0993" y1="19.0124" x2="19.2901" y2="162.391" gradientUnits="userSpaceOnUse">
<stop stop-color="#7D82FA"/>
<stop offset="0.421875" stop-color="#605FE8"/>
<stop offset="0.910855" stop-color="#9868FD"/>
</linearGradient>
<linearGradient id="paint3_linear" x1="-28.9472" y1="52.9595" x2="21.1091" y2="25.9291" gradientUnits="userSpaceOnUse">
<stop offset="0.0417771" stop-color="#F98970"/>
<stop offset="0.576374" stop-color="#FD4F4F"/>
<stop offset="1" stop-color="#FD7D4F"/>
</linearGradient>
</defs>
</svg>
