<?xml version="1.0" encoding="UTF-8"?>
<svg xmlns="http://www.w3.org/2000/svg" xmlns:xlink="http://www.w3.org/1999/xlink" id="Livello_1" data-name="Livello 1" viewBox="0 0 493.46 76.46">
  <defs>
    <style>
      .cls-1 {
        fill: #27224f;
      }

      .cls-2 {
        fill: url(#Sfumatura_senza_nome_32);
      }
    </style>
    <linearGradient id="Sfumatura_senza_nome_32" data-name="Sfumatura senza nome 32" x1="73.39" y1="11.3" x2="126.69" y2="64.6" gradientUnits="userSpaceOnUse">
      <stop offset="0" stop-color="#009fe3"></stop>
      <stop offset=".18" stop-color="#37aeaa"></stop>
      <stop offset=".39" stop-color="#71be6e"></stop>
      <stop offset=".59" stop-color="#a0cb3e"></stop>
      <stop offset=".76" stop-color="#c2d41c"></stop>
      <stop offset=".91" stop-color="#d6d907"></stop>
      <stop offset="1" stop-color="#dedc00"></stop>
    </linearGradient>
  </defs>
  <g>
    <path class="cls-1" d="M493.46,75.3V4.99c-5.04,0-9.11,4.09-9.1,9.13l.15,40.09L434.64,2.92h-.47V73.04c5.09,0,9.21-4.14,9.19-9.22l-.15-39.25,49.98,50.73h.28Z"></path>
    <path class="cls-1" d="M404.67,75.3h.28V4.99c-5.04,0-9.11,4.09-9.09,9.13l.15,40.09L346.13,2.92h-.47V73.04c5.09,0,9.21-4.14,9.19-9.22l-.15-39.25,49.98,50.73Z"></path>
    <path class="cls-1" d="M322.61,73.04l-14.87-35.43-14.87-35.44h-.56l-14.87,35.44-14.87,35.43c.69,0,1.36-.05,2.03-.15,2.43-.32,4.72-1.19,6.69-2.53,2.52-1.71,4.53-4.16,5.7-7.12l15.61-39.87,15.61,39.87c1.17,2.96,3.18,5.41,5.7,7.12,1.97,1.34,4.26,2.21,6.69,2.53,.66,.1,1.34,.15,2.03,.15"></path>
    <path class="cls-1" d="M239.41,63.91V4.99c-5.04,0-9.13,4.09-9.13,9.13v58.92c5.04,0,9.13-4.09,9.13-9.13"></path>
    <path class="cls-1" d="M205.16,64.19h-34.64V4.99c-5.04,0-9.13,4.09-9.13,9.13v58.92h34.92c4.89,0,8.85-3.96,8.85-8.85"></path>
    <path class="cls-1" d="M9.13,64.19v-20.99h31.34v-8.75H9.13V13.74H44.23c0-4.83-3.92-8.75-8.75-8.75H0V73.04H36.71c4.89,0,8.85-3.96,8.85-8.85H9.13Z"></path>
  </g>
  <path class="cls-2" d="M103.71,52.99c-.95,.25-1.73,.82-2.25,1.57-.51,.69-3.16,4.19-5.31,5.13-4.1,1.79-6.62,.99-8.9,.19-1.74-.61-3.33-1.22-5.38-.68-3.73,.98-5.95,4.8-4.96,8.53,.49,1.86,1.69,3.35,3.23,4.25,1.54,.9,3.43,1.21,5.29,.72,5.64-1.49,5.09-9.08,10.17-11.37,3.68-1.66,5.65-1.25,7.23-.84,1.01,.26,1.87,.52,2.92,.25,2.14-.56,3.41-2.75,2.85-4.89-.47-1.79-2.09-2.98-3.87-2.98-.34,0-.68,.04-1.02,.13m10.04-7.28c-.4,.9-.43,1.86-.18,2.74,.22,.82,1.31,5.08,.7,7.35-2.05,7.62-7.31,6.38-9.28,10.86-1.55,3.53,.04,7.64,3.57,9.19,.9,.4,1.85,.59,2.78,.6h.08c.86,0,1.7-.17,2.49-.47,1.66-.65,3.08-1.93,3.86-3.69,2.35-5.34-3.93-9.64-2.55-15.05,1.64-6.41,4.74-5.76,5.87-8.3,.89-2.02-.03-4.38-2.05-5.27-.52-.23-1.07-.34-1.61-.34-1.54,0-3,.89-3.66,2.39m-50.23-7.81c-1.15,1.55-1.56,3.41-1.31,5.18,.26,1.77,1.19,3.43,2.74,4.58,2.47,1.84,5.2,1.27,7.96,.69,2.46-.51,4.94-1.03,7.28,.18,5.89,3.02,4.56,5.91,6.79,7.57,1.77,1.32,4.28,.95,5.6-.82,1.32-1.77,.95-4.28-.82-5.6-.79-.59-1.72-.84-2.63-.78-.85,.03-5.25,.14-7.32-.95-6.98-3.69-4.59-8.54-8.52-11.47-1.25-.93-2.71-1.38-4.16-1.38-2.13,0-4.23,.97-5.6,2.81m52.49-9.98c-1.96,1.03-2.71,3.44-1.69,5.4,.46,.87,1.19,1.5,2.03,1.85,.78,.34,4.79,2.15,6.19,4.04,4.68,6.35,.43,9.69,2.7,14.03,1.79,3.41,6,4.73,9.41,2.94,1.71-.9,2.89-2.4,3.42-4.1,.53-1.7,.42-3.61-.48-5.32-2.71-5.17-9.99-2.94-13.35-7.39-3.99-5.28-1.54-7.3-2.84-9.76-.72-1.37-2.11-2.15-3.55-2.15-.63,0-1.26,.15-1.85,.46m6.5-9.73c-1.98,1.52-3.98,3.04-6.6,2.97-6.62-.17-6.67-3.34-9.4-3.87-2.17-.42-4.27,1-4.69,3.17-.42,2.17,1,4.27,3.17,4.69,.96,.19,1.91,0,2.71-.44,.75-.4,4.67-2.41,7.01-2.32,7.89,.3,7.84,5.71,12.65,6.63,3.78,.73,7.44-1.74,8.17-5.53,.37-1.89-.07-3.75-1.07-5.23-1-1.48-2.56-2.58-4.46-2.94-.41-.08-.82-.12-1.2-.12-2.45,0-4.36,1.49-6.3,2.97m-44.02-9.34c-1.93,.07-3.64,.9-4.86,2.21-1.22,1.3-1.94,3.07-1.88,5,.2,5.83,7.72,6.98,8.82,12.45,1.31,6.49-1.78,7.25-1.68,10.03,.07,2.21,1.93,3.94,4.13,3.86,2.21-.08,3.94-1.92,3.86-4.13-.03-.98-.42-1.87-1.03-2.54-.56-.65-3.38-4.01-3.82-6.32-1.46-7.76,3.82-8.92,3.65-13.81-.13-3.77-3.22-6.74-6.97-6.74-.08,0-.16,0-.24,0M100.71,1.67c-4.44,3.79-.64,10.39-4.23,14.66-4.26,5.07-6.77,3.13-8.89,4.94-1.68,1.44-1.88,3.96-.44,5.64,1.44,1.68,3.96,1.88,5.64,.44,.75-.64,1.2-1.49,1.35-2.39,.16-.84,1.03-5.15,2.56-6.93,5.15-5.98,9.35-2.57,13.08-5.76,2.93-2.5,3.28-6.9,.77-9.83-1.25-1.46-2.98-2.28-4.76-2.42C105.61,0,105.42,0,105.24,0c-1.6,0-3.21,.55-4.53,1.67"></path>
</svg>
